<?xml version="1.0" encoding="UTF-8"?>
<svg version="1.1" xmlns="http://www.w3.org/2000/svg" width="512" height="512">
<path d="M0 0 C1.81173291 -0.01199636 3.62345568 -0.0256133 5.43516541 -0.04071045 C10.31287294 -0.07575539 15.19029918 -0.0854086 20.06812048 -0.08797359 C23.1206496 -0.09083041 26.17310866 -0.09939481 29.22562027 -0.10996246 C39.8879267 -0.14685184 50.5500342 -0.16331524 61.21240234 -0.16015625 C71.13423524 -0.15774725 81.05520243 -0.20009935 90.97681606 -0.2631309 C99.51817074 -0.31545122 108.05924214 -0.33689154 116.60075581 -0.33433461 C121.69281618 -0.33331638 126.78410338 -0.34462793 131.87600327 -0.38704681 C136.65853977 -0.42581255 141.43956436 -0.42606441 146.22215462 -0.39698029 C147.97329103 -0.39280363 149.72452229 -0.40220999 151.47549629 -0.42642212 C164.66251367 -0.59692841 164.66251367 -0.59692841 169.29867935 2.28859711 C171.32924981 4.28241795 172.93084233 6.25152174 174.55517578 8.58105469 C175.68937962 9.90361732 176.83380437 11.21755226 177.99267578 12.51855469 C178.84539062 13.50855469 178.84539062 13.50855469 179.71533203 14.51855469 C183.15534728 18.37487751 186.87165278 21.95933576 190.55517578 25.58105469 C199.1225716 34.00470225 199.1225716 34.00470225 202.89892578 38.42480469 C207.63992704 43.94140753 212.88096948 48.97621214 218.05517578 54.08105469 C229.24304994 65.11894777 229.24304994 65.11894777 233.02392578 69.54980469 C237.86150974 75.21204281 243.25919378 80.35284576 248.55517578 85.58105469 C254.45488836 91.4052682 260.31422299 97.19161183 265.69970703 103.50292969 C269.92629389 108.23670697 274.53888744 112.62531027 279.05517578 117.08105469 C291.32431731 129.18572001 291.32431731 129.18572001 295.44308472 134.34229946 C297.57598349 136.75133046 297.57598349 136.75133046 300.69631958 138.7994318 C305.65508224 142.47348217 309.68981622 146.30600006 311.30701447 152.42647624 C312.42887722 160.43607489 312.24955517 168.51737496 312.108006 176.58574998 C312.05764513 180.27845346 312.08317207 183.97077563 312.09896851 187.66368103 C312.11816485 194.88311106 312.06879048 202.10049624 311.99635398 209.31952398 C311.91480332 217.73953121 311.90487934 226.1591789 311.89835453 234.57952315 C311.8845584 249.61197235 311.81064929 264.64350847 311.70068359 279.67553711 C311.59425935 294.23578914 311.52339509 308.79558085 311.49560547 323.35620117 C311.49388627 324.25291678 311.49216708 325.14963238 311.49039578 326.07352119 C311.48356271 329.67883065 311.47680118 333.28414022 311.47017729 336.88945007 C311.44208881 351.64142976 311.38584535 366.39332067 311.32532501 381.14519811 C311.31164113 384.49786429 311.29907467 387.85053182 311.28746796 391.20320582 C311.25650024 400.01604347 311.21630924 408.82867757 311.14935148 417.6413235 C311.1217527 421.28256402 311.09838596 424.9236769 311.08774948 428.56501007 C311.07589809 432.52484031 311.04076701 436.48427857 311.00341797 440.44395447 C311.00322442 442.14375589 311.00322442 442.14375589 311.00302696 443.87789673 C310.8595245 454.94360935 309.14794982 465.99327679 303.86767578 475.83105469 C303.52027344 476.4987085 303.17287109 477.1663623 302.81494141 477.85424805 C294.35210021 493.62296093 280.88832525 504.9025966 263.9513855 510.66612244 C252.56839305 513.82848254 240.78865212 513.14711485 229.06738281 513.11450195 C226.39178521 513.12156813 223.71623197 513.13018095 221.04064941 513.14060974 C214.55471762 513.16214162 208.068962 513.16215075 201.58300628 513.1539842 C196.30600064 513.14765857 191.029046 513.14884458 185.75204086 513.15525627 C184.99810831 513.15615793 184.24417575 513.15705958 183.46739676 513.15798856 C181.93529192 513.15983995 180.4031871 513.16170252 178.87108229 513.16357612 C164.53605082 513.18011714 150.20111805 513.17146721 135.86609255 513.15459054 C122.78298911 513.13989941 109.70011546 513.15452021 96.6170416 513.1833607 C83.14674832 513.21283108 69.6765608 513.22370463 56.20623672 513.2141785 C54.67947191 513.21315607 53.15270708 513.21216145 51.62594223 513.21119499 C50.87495724 513.2107186 50.12397225 513.21024221 49.35023014 513.20975139 C44.08765415 513.20759718 38.82517944 513.21733811 33.56262589 513.23196602 C27.13747948 513.24957811 20.71262563 513.2492461 14.28749026 513.22661436 C11.01642393 513.21555129 7.7459715 513.21488233 4.47491074 513.23091507 C-18.98300891 513.33673874 -37.33779698 510.00212665 -54.97607422 493.17480469 C-70.06615917 477.3206648 -73.92511691 458.20770303 -73.82577515 437.03393555 C-73.82923948 435.40665595 -73.83400922 433.7793787 -73.83995688 432.15210629 C-73.85239002 427.71848065 -73.84633184 423.28505069 -73.83699822 418.85142469 C-73.83017631 414.05516251 -73.84070446 409.25893265 -73.84893799 404.462677 C-73.86224413 395.08180664 -73.85941151 385.70100849 -73.85070007 376.32013535 C-73.84391162 368.6928182 -73.84301181 361.06552122 -73.84627151 353.4382019 C-73.84673121 352.35064856 -73.84719091 351.26309521 -73.84766454 350.14258569 C-73.84862377 347.9329094 -73.84959641 345.72323312 -73.85058232 343.51355684 C-73.85912708 322.81685269 -73.84931643 302.12018848 -73.83318122 281.42349088 C-73.81977888 263.68334893 -73.82210723 245.94326589 -73.8359375 228.203125 C-73.85200947 207.5780379 -73.85830319 186.95298575 -73.84910071 166.32789326 C-73.84814511 164.12656467 -73.847202 161.92523607 -73.84627151 159.72390747 C-73.84580869 158.64094782 -73.84534586 157.55798818 -73.84486901 156.44221157 C-73.84228397 148.82831762 -73.84663962 141.21444592 -73.85371017 133.60055542 C-73.86214335 124.31567254 -73.85980689 115.03086569 -73.84386794 105.74599147 C-73.83600967 101.01309448 -73.83285176 96.28032405 -73.8428154 91.54742813 C-73.85181366 87.2073074 -73.84674575 82.8674295 -73.83088274 78.52733052 C-73.82755652 76.96492854 -73.82917979 75.40250566 -73.83651011 73.84011734 C-73.89168818 61.09255724 -72.85579781 48.68345709 -66.69482422 37.26855469 C-66.34411865 36.59759766 -65.99341309 35.92664062 -65.63208008 35.23535156 C-57.12390513 19.36725005 -43.53819958 7.95948567 -26.34054565 2.50115967 C-17.54769148 0.04886147 -9.07674927 -0.01212946 0 0 Z " fill="#0263D1" transform="translate(137.44482421875,-0.5810546875)"/>
<path d="M0 0 C3.48625821 1.74312911 4.87018803 2.6579149 7.36328125 5.38671875 C7.99564697 6.07064697 8.6280127 6.7545752 9.27954102 7.45922852 C9.95041748 8.19455811 10.62129395 8.9298877 11.3125 9.6875 C17.35431782 16.21895058 23.50498818 22.60018103 29.86254883 28.82495117 C32.77451918 31.69512879 35.55780603 34.60608576 38.21484375 37.71484375 C43.00844246 43.26740109 48.28189757 48.35184979 53.5 53.5 C64.68787416 64.53789308 64.68787416 64.53789308 68.46875 68.96875 C73.30633396 74.63098813 78.704018 79.77179108 84 85 C89.89971257 90.82421351 95.75904721 96.61055714 101.14453125 102.921875 C105.3711181 107.65565228 109.98371166 112.04425558 114.5 116.5 C120.32162721 122.24358433 126.09272392 127.96195653 131.40869141 134.18603516 C134.10012698 137.25405699 137.0197168 140.08671526 139.9375 142.9375 C141.98272741 144.93792506 144.00084709 146.95274717 146 149 C146 149.33 146 149.66 146 150 C97.82 150 49.64 150 0 150 C0 100.5 0 51 0 0 Z " fill="#4F93DF" transform="translate(302,0)"/>
<path d="M0 0 C1.12728516 0.62068359 1.12728516 0.62068359 2.27734375 1.25390625 C3.05980469 1.67800781 3.84226562 2.10210937 4.6484375 2.5390625 C15.01512372 8.81501587 21.08414277 17.7349337 24.89453125 29.09375 C27.15265605 41.83602563 24.98401727 54.24677031 18.27734375 65.25390625 C11.46808087 74.67161728 2.52275199 80.4613846 -8.72265625 83.25390625 C-12.02760548 83.66589992 -15.26979695 83.73217782 -18.59765625 83.69140625 C-19.91419189 83.67895874 -19.91419189 83.67895874 -21.25732422 83.66625977 C-33.3749752 83.35103481 -42.63306649 78.84598094 -51.50390625 70.59765625 C-60.26675177 61.11947641 -63.26053556 49.52476826 -63.03125 36.9140625 C-61.99951952 24.67695545 -56.79751685 14.85034104 -47.97265625 6.44140625 C-35.4299811 -3.94127787 -14.92470143 -6.76680776 0 0 Z " fill="#FBFCFE" transform="translate(270.72265625,282.74609375)"/>
<path d="M0 0 C50.22191176 0 50.22191176 0 64.8125 13.25 C73.27387969 22.31006222 75.47412047 33.65570367 75.25 45.66015625 C74.40106435 57.00140594 70.56666711 67.51650427 62.12890625 75.37109375 C44.11542572 89.15388528 21.71567463 86 0 86 C0 57.62 0 29.24 0 0 Z " fill="#F7FAFD" transform="translate(126,280)"/>
<path d="M0 0 C6.48223427 4.14657208 10.88788473 10.15792764 13.6875 17.3125 C13.875 20.6875 13.875 20.6875 13.6875 23.3125 C6.68572721 25.72742814 0.07889585 26.90498958 -7.3125 27.3125 C-7.54324219 26.78140625 -7.77398437 26.2503125 -8.01171875 25.703125 C-10.58175249 20.1364116 -13.11952513 17.08637493 -18.5625 14.0625 C-25.10674169 12.27770681 -30.67408247 12.75801109 -36.59375 16.1171875 C-41.09949134 19.2507258 -44.0560126 24.00429598 -45.3125 29.3125 C-46.15562586 38.78057552 -45.54894905 46.91841825 -40.625 55.125 C-36.28574945 59.22969647 -31.77716588 61.52372415 -25.75 61.75 C-20.18536854 61.46217423 -15.89300043 59.97843288 -12 55.875 C-10.5854239 53.72694 -9.35575708 51.65982844 -8.3125 49.3125 C-2.9082757 49.0876168 1.50025243 49.8238589 6.625 51.3125 C7.30884766 51.50328125 7.99269531 51.6940625 8.69726562 51.890625 C10.36294526 52.35654937 12.02556675 52.83338411 13.6875 53.3125 C12.46037576 62.33697617 7.94545383 67.75095764 1.0859375 73.55078125 C-9.45084259 81.29033796 -22.72718947 81.32105875 -35.3125 80.3125 C-45.8728103 78.30770107 -56.03880187 71.38978686 -62.1015625 62.5234375 C-69.14080165 49.67114925 -70.07180738 35.51749223 -66.40625 21.44921875 C-62.7161044 10.86640832 -55.63198263 3.24672192 -45.8125 -2.03125 C-31.54569775 -8.60148788 -13.68407286 -7.42907506 0 0 Z " fill="#FBFCFE" transform="translate(371.3125,285.6875)"/>
<path d="M0 0 C6.48665723 2.84588593 10.19063674 6.8443825 13.26953125 13.1953125 C15.5730233 19.9079427 15.36116187 29.10198199 13.01953125 35.7578125 C9.30009756 43.06384297 4.9949292 46.48698333 -2.73046875 49.1953125 C-8.57789894 50.21685151 -13.67199337 49.54545263 -18.84375 46.59765625 C-23.85471612 42.87314934 -27.9071432 38.21572706 -29.73046875 32.1953125 C-31.16546839 16.36025835 -31.16546839 16.36025835 -27.13671875 9.87109375 C-19.66538817 0.96775814 -11.6650011 -3.43775426 0 0 Z " fill="#0464D1" transform="translate(259.73046875,298.8046875)"/>
<path d="M0 0 C17.3823902 0 17.3823902 0 24.375 5.1875 C30.74905267 12.01684215 31.73015683 17.94508211 31.44140625 27.296875 C30.70216327 33.49866565 28.90443188 38.52889062 24.0625 42.6484375 C15.9251422 47.98087273 10.39013355 48 0 48 C0 32.16 0 16.32 0 0 Z " fill="#0464D1" transform="translate(148,299)"/>
</svg>
