<?xml version="1.0" encoding="UTF-8"?>
<svg version="1.1" xmlns="http://www.w3.org/2000/svg" width="512" height="512">
<path d="M0 0 C0.80887883 -0.01229234 1.61775766 -0.02458467 2.45114797 -0.03724951 C5.14134666 -0.07543588 7.83147485 -0.09970974 10.52183533 -0.12364197 C12.45925157 -0.14765396 14.39666 -0.17230339 16.33406067 -0.19754028 C22.6790009 -0.27554058 29.02403135 -0.33117861 35.36924744 -0.38121033 C36.45138039 -0.3897506 37.53351335 -0.39829088 38.64843822 -0.40708995 C48.86657885 -0.48554136 59.08475754 -0.55310675 69.30309391 -0.59999943 C82.33839124 -0.66078786 95.37121715 -0.7711136 108.405469 -0.94798476 C117.59047211 -1.06837626 126.77480559 -1.13081034 135.96056837 -1.15122217 C141.43787681 -1.16499521 146.91223392 -1.2038835 152.38867378 -1.30563545 C157.54702176 -1.40032829 162.70085975 -1.42267118 167.85993576 -1.39175606 C169.7421438 -1.39268203 171.62455441 -1.41886694 173.50596809 -1.4735527 C183.15853152 -1.73915618 189.84422042 -1.22338688 197.10047001 5.61521679 C200.09563527 8.73062158 202.86853992 11.98215525 205.58409119 15.34144592 C206.87150027 16.8035392 208.16150958 18.26337302 209.45909119 19.71644592 C210.21319275 20.60976624 210.21319275 20.60976624 210.98252869 21.52113342 C213.63597996 24.53700731 216.53808993 27.30282306 219.39659119 30.12269592 C221.98606 32.74915715 224.37246083 35.51121051 226.77159119 38.31019592 C228.79501999 40.57783165 230.92062465 42.70721542 233.08409119 44.84144592 C236.49127909 48.20259074 239.65867293 51.67845796 242.77159119 55.31019592 C244.79501999 57.57783165 246.92062465 59.70721542 249.08409119 61.84144592 C252.49127909 65.20259074 255.65867293 68.67845796 258.77159119 72.31019592 C260.79501999 74.57783165 262.92062465 76.70721542 265.08409119 78.84144592 C268.49127909 82.20259074 271.65867293 85.67845796 274.77159119 89.31019592 C276.79501999 91.57783165 278.92062465 93.70721542 281.08409119 95.84144592 C284.49127909 99.20259074 287.65867293 102.67845796 290.77159119 106.31019592 C292.79501999 108.57783165 294.92062465 110.70721542 297.08409119 112.84144592 C300.49127909 116.20259074 303.65867293 119.67845796 306.77159119 123.31019592 C309.50941717 126.37844919 312.45829489 129.2241494 315.38487244 132.11097717 C317.98178888 134.74479474 320.39988463 137.4950614 322.78330994 140.32191467 C324.66274336 142.54786899 324.66274336 142.54786899 327.64986229 144.7565527 C331.22002346 148.35196659 331.30560904 151.54436522 331.37722743 156.462318 C331.36247886 157.53711177 331.34773029 158.61190553 331.33253479 159.7192688 C331.3404836 160.87086831 331.34843241 162.02246782 331.3566221 163.20896429 C331.37252394 166.39745124 331.36156485 169.58453225 331.3391211 172.77293813 C331.32141494 176.21488021 331.33833087 179.65667688 331.35084534 183.09861755 C331.36981719 189.84008197 331.35662347 196.58111804 331.33231945 203.32255066 C331.30504768 211.18094369 331.30835833 219.0392352 331.31258611 226.89766353 C331.31896605 240.92873538 331.29563574 254.95960422 331.25645447 268.99061584 C331.21849701 282.587033 331.20426603 296.18321199 331.21543884 309.77967834 C331.22757742 324.59515375 331.22715439 339.41052441 331.20446718 354.22599119 C331.20205273 355.80871578 331.19964076 357.39144037 331.19723129 358.97416496 C331.19602422 359.75280898 331.19481714 360.53145301 331.19357348 361.3336923 C331.18583792 366.8024405 331.18659377 372.27114957 331.19040298 377.73990059 C331.19466476 384.41637514 331.18406608 391.09264189 331.15517588 397.76905812 C331.14076806 401.17129645 331.13462873 404.57298282 331.1416626 407.97528267 C331.14814936 411.67543036 331.12983584 415.37468193 331.10548401 419.07473755 C331.11304266 420.13391626 331.1206013 421.19309497 331.128389 422.28437001 C330.9752458 435.5183235 326.62191446 447.45239564 317.77549744 457.36878967 C306.86734924 467.73266436 293.83564153 470.64847694 279.32037354 470.60887146 C278.09764478 470.61340257 276.87491603 470.61793369 275.61513489 470.62260211 C272.23776463 470.63304141 268.86060802 470.63457727 265.48323691 470.63221335 C261.83413598 470.63180398 258.18506641 470.64285585 254.53598022 470.65232849 C247.39254355 470.66891396 240.24913989 470.67443694 233.10568557 470.67555325 C227.29600961 470.67650497 221.48634451 470.68062147 215.67667198 470.6869545 C199.18852676 470.7045609 182.70040753 470.71379441 166.21225283 470.71229355 C165.32409279 470.71221364 164.43593275 470.71213373 163.52085876 470.71205139 C162.63160838 470.71196963 161.742358 470.71188787 160.82616063 470.71180363 C146.42151914 470.7109911 132.0169823 470.73012208 117.61237106 470.75832812 C102.80549509 470.78709196 87.9986701 470.80086647 73.19176549 470.79914057 C64.88541091 470.79847784 56.57916602 470.80391884 48.27283669 470.82549667 C41.19936451 470.84375469 34.12605175 470.84801811 27.05256615 470.83447783 C23.44783911 470.8279711 19.84341747 470.82774694 16.23871994 470.84518433 C12.31991626 470.86394511 8.40155277 470.85130047 4.48272705 470.83592224 C3.35876646 470.84620937 2.23480587 470.85649649 1.07678586 470.86709535 C-12.35554816 470.75119596 -24.36041262 466.52775563 -34.44325256 457.53285217 C-45.91547844 445.45814617 -47.71807997 431.4245742 -47.68333435 415.58505249 C-47.68707348 413.97048915 -47.69167605 412.35592762 -47.697065 410.74136895 C-47.70927807 406.31510394 -47.70903652 401.8889146 -47.70667624 397.46263659 C-47.70626765 392.68469433 -47.71731136 387.9067762 -47.72679138 383.12884521 C-47.74339332 373.77157071 -47.74890057 364.4143214 -47.75001614 355.0570334 C-47.75096704 347.44911265 -47.75507945 339.84120021 -47.76141739 332.23328209 C-47.77902798 310.65408555 -47.7882566 289.07490889 -47.78675644 267.49570511 C-47.78667653 266.33274147 -47.78659662 265.16977783 -47.78651428 263.97157288 C-47.78643252 262.80718593 -47.78635076 261.64279899 -47.78626652 260.44312759 C-47.78545378 241.5765935 -47.80458887 222.71013927 -47.83279102 203.84362826 C-47.86153339 184.46246385 -47.87533055 165.08133837 -47.87360346 145.7001521 C-47.87294001 134.82280586 -47.87841284 123.94554334 -47.89995956 113.06821632 C-47.9181892 103.80620709 -47.92250406 94.54431952 -47.90894072 85.28230009 C-47.90241996 80.55965238 -47.90226158 75.83723796 -47.91964722 71.11461258 C-47.93542258 66.78473626 -47.93246899 62.45527735 -47.91507895 58.12541094 C-47.91201884 56.56553487 -47.91560387 55.00562731 -47.9267991 53.44578842 C-48.029092 38.17219833 -45.00477447 24.96913766 -34.60731506 13.31410217 C-25.11910543 4.29931672 -12.8872819 0.07665438 0 0 Z " fill="#FE6F01" transform="translate(114.41590881347656,20.658554077148438)"/>
<path d="M0 0 C1.11719279 0.95186693 2.23357171 1.90468914 3.34960938 2.85791016 C3.97138062 3.38840973 4.59315186 3.9189093 5.23376465 4.46548462 C11.02944372 9.50080377 16.19873173 15.14852035 21.1875 20.96875 C23.2109288 23.23638572 25.33653347 25.3657695 27.5 27.5 C30.9071879 30.86114482 34.07458174 34.33701203 37.1875 37.96875 C39.2109288 40.23638572 41.33653347 42.3657695 43.5 44.5 C46.9071879 47.86114482 50.07458174 51.33701203 53.1875 54.96875 C55.2109288 57.23638572 57.33653347 59.3657695 59.5 61.5 C62.9071879 64.86114482 66.07458174 68.33701203 69.1875 71.96875 C71.2109288 74.23638572 73.33653347 76.3657695 75.5 78.5 C78.9071879 81.86114482 82.07458174 85.33701203 85.1875 88.96875 C87.2109288 91.23638572 89.33653347 93.3657695 91.5 95.5 C94.9071879 98.86114482 98.07458174 102.33701203 101.1875 105.96875 C103.2109288 108.23638572 105.33653347 110.3657695 107.5 112.5 C110.9071879 115.86114482 114.07458174 119.33701203 117.1875 122.96875 C119.92410355 126.03563329 122.87157092 128.88012098 125.796875 131.765625 C128.47004981 134.47671719 130.95322658 137.31764509 133.42578125 140.2109375 C134.86741181 141.84931665 136.36254459 143.36621919 137.9375 144.875 C140 147 140 147 140 149 C124.91790922 149.11707054 109.83585381 149.20510384 94.75340462 149.25906086 C87.74951058 149.28478585 80.74589972 149.31982594 73.7421875 149.37719727 C66.97945358 149.43256795 60.21701363 149.46144725 53.45406723 149.47438622 C50.87773899 149.48360363 48.30142629 149.5016031 45.72522354 149.52865028 C42.10829554 149.56510351 38.4925713 149.56993825 34.87548828 149.56762695 C33.28836281 149.59459152 33.28836281 149.59459152 31.66917419 149.62210083 C22.75713733 149.56073524 15.01025257 146.73957737 8.625 140.3125 C4.63561644 136.07327626 2.72755093 131.49497838 1 126 C0.67 125.01 0.34 124.02 0 123 C-0.08999029 121.32516375 -0.12196425 119.64693205 -0.12025452 117.96968079 C-0.12162918 116.93061584 -0.12300385 115.8915509 -0.12442017 114.82099915 C-0.12082489 113.68164413 -0.11722961 112.54228912 -0.11352539 111.3684082 C-0.11367142 110.16828094 -0.11381744 108.96815369 -0.1139679 107.73165894 C-0.1133902 104.44059468 -0.10837154 101.149593 -0.10139394 97.85853982 C-0.0951468 94.41921946 -0.09455552 90.97989828 -0.09336853 87.54057312 C-0.09025924 81.02766859 -0.08205125 74.51478083 -0.07201904 68.00188369 C-0.06084545 60.5872054 -0.05534431 53.17252632 -0.05032361 45.75784171 C-0.03986831 30.50521809 -0.02227662 15.25261121 0 0 Z " fill="#F9A54A" transform="translate(304,21)"/>
<path d="M0 0 C7.5075 -0.103125 15.015 -0.20625 22.75 -0.3125 C25.09448242 -0.35802002 27.43896484 -0.40354004 29.85449219 -0.45043945 C43.65616024 -0.60723301 54.8021622 0.0284388 65.3125 10.03515625 C71.59073267 17.34522809 73.38820164 24.45725465 73.2734375 33.90234375 C72.5525729 42.06870982 68.01600774 48.61854075 62 54 C55.92128438 57.96233494 49.21478101 60.27025547 41.9453125 60.1953125 C40.94516113 60.19031738 39.94500977 60.18532227 38.91455078 60.18017578 C37.66399902 60.16196777 36.41344727 60.14375977 35.125 60.125 C31.12375 60.08375 27.1225 60.0425 23 60 C23 70.56 23 81.12 23 92 C15.41 92 7.82 92 0 92 C0 61.64 0 31.28 0 0 Z " fill="#FFFBF9" transform="translate(212,282)"/>
<path d="M0 0 C5.86246831 4.49016768 9.25343275 10.71834366 11.7109375 17.59765625 C12.2059375 21.55765625 12.2059375 21.55765625 12.7109375 25.59765625 C5.4509375 25.59765625 -1.8090625 25.59765625 -9.2890625 25.59765625 C-10.2790625 22.62765625 -11.2690625 19.65765625 -12.2890625 16.59765625 C-16.25805711 12.62866164 -18.75498953 12.42859001 -24.1640625 12.34765625 C-25.19273437 12.321875 -26.22140625 12.29609375 -27.28125 12.26953125 C-30.78118117 12.65134192 -32.52290314 13.43570917 -35.2890625 15.59765625 C-36.90341415 17.87609222 -36.90341415 17.87609222 -38.0390625 20.47265625 C-38.44640625 21.31570313 -38.85375 22.15875 -39.2734375 23.02734375 C-43.27871376 33.16377366 -42.98869776 49.39969793 -39.2890625 59.59765625 C-37.38372104 63.76783756 -35.35340922 66.76694661 -31.7265625 69.59765625 C-25.45498959 71.42211382 -19.19746007 71.53860841 -12.96875 69.5234375 C-9.95030842 67.79685434 -9.95030842 67.79685434 -9.484375 64.2421875 C-9.46117187 62.97761719 -9.43796875 61.71304688 -9.4140625 60.41015625 C-9.3728125 58.16203125 -9.3315625 55.91390625 -9.2890625 53.59765625 C-14.5690625 53.59765625 -19.8490625 53.59765625 -25.2890625 53.59765625 C-25.2890625 48.64765625 -25.2890625 43.69765625 -25.2890625 38.59765625 C-12.7490625 38.59765625 -0.2090625 38.59765625 12.7109375 38.59765625 C12.8759375 44.74390625 13.0409375 50.89015625 13.2109375 57.22265625 C13.28376953 59.15189941 13.35660156 61.08114258 13.43164062 63.06884766 C13.70058063 75.050867 13.70058063 75.050867 11.14282227 79.04858398 C9.04744043 80.69052732 7.19525316 81.65936922 4.7109375 82.59765625 C3.52371094 83.14035156 2.33648437 83.68304688 1.11328125 84.2421875 C-0.03011719 84.62761719 -1.17351562 85.01304687 -2.3515625 85.41015625 C-3.49753906 85.80847656 -4.64351563 86.20679688 -5.82421875 86.6171875 C-17.99170911 90.0602992 -32.92677553 90.67384614 -44.2890625 84.59765625 C-54.24383056 78.55866234 -59.7520328 70.64558966 -63.2890625 59.59765625 C-64.5671041 53.20744827 -64.50831153 46.77745401 -64.5390625 40.28515625 C-64.5596875 39.20814453 -64.5803125 38.13113281 -64.6015625 37.02148438 C-64.64397804 28.2679763 -63.3128056 20.43509114 -58.8515625 12.78515625 C-58.46097656 12.09808594 -58.07039063 11.41101563 -57.66796875 10.703125 C-54.63938866 6.07874916 -51.67278219 2.86605125 -46.9765625 -0.08984375 C-46.07292969 -0.67121094 -45.16929687 -1.25257813 -44.23828125 -1.8515625 C-31.44497144 -8.57864064 -12.19227634 -7.4693297 0 0 Z " fill="#FFFDFB" transform="translate(359.2890625,286.40234375)"/>
<path d="M0 0 C7.26 0 14.52 0 22 0 C22.11335593 9.0845188 22.20491893 18.16856119 22.25906086 27.25362968 C22.28505782 31.47306657 22.32027193 35.69199086 22.37719727 39.91113281 C22.43187439 43.98957417 22.46149484 48.06752524 22.47438622 52.14630508 C22.48356261 53.69554478 22.50148103 55.24476029 22.52865028 56.79378891 C22.70719484 67.4037551 21.6496609 75.34500701 14.6875 83.8125 C4.64884988 91.98349428 -4.06708668 93.84607844 -17 93 C-23.97952246 91.88813498 -30.12517298 89.22148138 -35 84 C-39.20769565 77.28024724 -41 72.01277056 -41 64 C-33.74 64 -26.48 64 -19 64 C-18.01 66.97 -17.02 69.94 -16 73 C-14.07127924 75.36401384 -14.07127924 75.36401384 -10.625 75.25 C-6.44759047 75.01499584 -6.44759047 75.01499584 -3 73 C-0.99030841 69.00776413 -0.73053137 65.62606833 -0.68115234 61.19018555 C-0.66608391 60.19422615 -0.66608391 60.19422615 -0.65071106 59.17814636 C-0.6199805 56.99767877 -0.6028726 54.81733339 -0.5859375 52.63671875 C-0.56721765 51.11927751 -0.54764363 49.60184658 -0.5272522 48.08442688 C-0.47601109 44.10116673 -0.43634264 40.11787287 -0.39910889 36.13446045 C-0.35901879 32.06546746 -0.30794933 27.99661377 -0.2578125 23.92773438 C-0.16114818 15.95191123 -0.07772861 7.97603019 0 0 Z " fill="#FFFDFB" transform="translate(176,282)"/>
<path d="M0 0 C2.866875 -0.061875 5.73375 -0.12375 8.6875 -0.1875 C10.02880981 -0.22846802 10.02880981 -0.22846802 11.3972168 -0.27026367 C17.52433942 -0.3341666 20.69025983 0.93996147 25.3125 5.0625 C27.78049816 9.35864495 27.64315985 13.15692888 27 18 C25.10677439 23.3010317 25.10677439 23.3010317 22.18847656 25.14404297 C19.70571444 26.11510098 17.89368721 26.22940625 15.234375 26.1953125 C14.43225586 26.19031738 13.63013672 26.18532227 12.80371094 26.18017578 C11.79598633 26.16196777 10.78826172 26.14375977 9.75 26.125 C6.5325 26.08375 3.315 26.0425 0 26 C0 17.42 0 8.84 0 0 Z " fill="#FF6F02" transform="translate(235,299)"/>
</svg>
