<?xml version="1.0" encoding="UTF-8"?>
<svg version="1.1" xmlns="http://www.w3.org/2000/svg" width="512" height="512">
<path d="M0 0 C0.80887883 -0.01229234 1.61775766 -0.02458467 2.45114797 -0.03724951 C5.14134666 -0.07543588 7.83147485 -0.09970974 10.52183533 -0.12364197 C12.45925157 -0.14765396 14.39666 -0.17230339 16.33406067 -0.19754028 C22.6790009 -0.27554058 29.02403135 -0.33117861 35.36924744 -0.38121033 C36.45138039 -0.3897506 37.53351335 -0.39829088 38.64843822 -0.40708995 C48.86657885 -0.48554136 59.08475754 -0.55310675 69.30309391 -0.59999943 C82.33839124 -0.66078786 95.37121715 -0.7711136 108.405469 -0.94798476 C117.59047211 -1.06837626 126.77480559 -1.13081034 135.96056837 -1.15122217 C141.43787681 -1.16499521 146.91223392 -1.2038835 152.38867378 -1.30563545 C157.54702176 -1.40032829 162.70085975 -1.42267118 167.85993576 -1.39175606 C169.7421438 -1.39268203 171.62455441 -1.41886694 173.50596809 -1.4735527 C183.15853152 -1.73915618 189.84422042 -1.22338688 197.10047001 5.61521679 C200.09563527 8.73062158 202.86853992 11.98215525 205.58409119 15.34144592 C206.87150027 16.8035392 208.16150958 18.26337302 209.45909119 19.71644592 C210.21319275 20.60976624 210.21319275 20.60976624 210.98252869 21.52113342 C213.63597996 24.53700731 216.53808993 27.30282306 219.39659119 30.12269592 C221.98606 32.74915715 224.37246083 35.51121051 226.77159119 38.31019592 C228.79501999 40.57783165 230.92062465 42.70721542 233.08409119 44.84144592 C236.49127909 48.20259074 239.65867293 51.67845796 242.77159119 55.31019592 C244.79501999 57.57783165 246.92062465 59.70721542 249.08409119 61.84144592 C252.49127909 65.20259074 255.65867293 68.67845796 258.77159119 72.31019592 C260.79501999 74.57783165 262.92062465 76.70721542 265.08409119 78.84144592 C268.49127909 82.20259074 271.65867293 85.67845796 274.77159119 89.31019592 C276.79501999 91.57783165 278.92062465 93.70721542 281.08409119 95.84144592 C284.49127909 99.20259074 287.65867293 102.67845796 290.77159119 106.31019592 C292.79501999 108.57783165 294.92062465 110.70721542 297.08409119 112.84144592 C300.49127909 116.20259074 303.65867293 119.67845796 306.77159119 123.31019592 C309.50941717 126.37844919 312.45829489 129.2241494 315.38487244 132.11097717 C317.98178888 134.74479474 320.39988463 137.4950614 322.78330994 140.32191467 C324.66274336 142.54786899 324.66274336 142.54786899 327.64986229 144.7565527 C331.22002346 148.35196659 331.30560904 151.54436522 331.37722743 156.462318 C331.36247886 157.53711177 331.34773029 158.61190553 331.33253479 159.7192688 C331.3404836 160.87086831 331.34843241 162.02246782 331.3566221 163.20896429 C331.37252394 166.39745124 331.36156485 169.58453225 331.3391211 172.77293813 C331.32141494 176.21488021 331.33833087 179.65667688 331.35084534 183.09861755 C331.36981719 189.84008197 331.35662347 196.58111804 331.33231945 203.32255066 C331.30504768 211.18094369 331.30835833 219.0392352 331.31258611 226.89766353 C331.31896605 240.92873538 331.29563574 254.95960422 331.25645447 268.99061584 C331.21849701 282.587033 331.20426603 296.18321199 331.21543884 309.77967834 C331.22757742 324.59515375 331.22715439 339.41052441 331.20446718 354.22599119 C331.20205273 355.80871578 331.19964076 357.39144037 331.19723129 358.97416496 C331.19602422 359.75280898 331.19481714 360.53145301 331.19357348 361.3336923 C331.18583792 366.8024405 331.18659377 372.27114957 331.19040298 377.73990059 C331.19466476 384.41637514 331.18406608 391.09264189 331.15517588 397.76905812 C331.14076806 401.17129645 331.13462873 404.57298282 331.1416626 407.97528267 C331.14814936 411.67543036 331.12983584 415.37468193 331.10548401 419.07473755 C331.11304266 420.13391626 331.1206013 421.19309497 331.128389 422.28437001 C330.9752458 435.5183235 326.62191446 447.45239564 317.77549744 457.36878967 C306.86734924 467.73266436 293.83564153 470.64847694 279.32037354 470.60887146 C278.09764478 470.61340257 276.87491603 470.61793369 275.61513489 470.62260211 C272.23776463 470.63304141 268.86060802 470.63457727 265.48323691 470.63221335 C261.83413598 470.63180398 258.18506641 470.64285585 254.53598022 470.65232849 C247.39254355 470.66891396 240.24913989 470.67443694 233.10568557 470.67555325 C227.29600961 470.67650497 221.48634451 470.68062147 215.67667198 470.6869545 C199.18852676 470.7045609 182.70040753 470.71379441 166.21225283 470.71229355 C165.32409279 470.71221364 164.43593275 470.71213373 163.52085876 470.71205139 C162.63160838 470.71196963 161.742358 470.71188787 160.82616063 470.71180363 C146.42151914 470.7109911 132.0169823 470.73012208 117.61237106 470.75832812 C102.80549509 470.78709196 87.9986701 470.80086647 73.19176549 470.79914057 C64.88541091 470.79847784 56.57916602 470.80391884 48.27283669 470.82549667 C41.19936451 470.84375469 34.12605175 470.84801811 27.05256615 470.83447783 C23.44783911 470.8279711 19.84341747 470.82774694 16.23871994 470.84518433 C12.31991626 470.86394511 8.40155277 470.85130047 4.48272705 470.83592224 C3.35876646 470.84620937 2.23480587 470.85649649 1.07678586 470.86709535 C-12.35554816 470.75119596 -24.36041262 466.52775563 -34.44325256 457.53285217 C-45.91547844 445.45814617 -47.71807997 431.4245742 -47.68333435 415.58505249 C-47.68707348 413.97048915 -47.69167605 412.35592762 -47.697065 410.74136895 C-47.70927807 406.31510394 -47.70903652 401.8889146 -47.70667624 397.46263659 C-47.70626765 392.68469433 -47.71731136 387.9067762 -47.72679138 383.12884521 C-47.74339332 373.77157071 -47.74890057 364.4143214 -47.75001614 355.0570334 C-47.75096704 347.44911265 -47.75507945 339.84120021 -47.76141739 332.23328209 C-47.77902798 310.65408555 -47.7882566 289.07490889 -47.78675644 267.49570511 C-47.78667653 266.33274147 -47.78659662 265.16977783 -47.78651428 263.97157288 C-47.78643252 262.80718593 -47.78635076 261.64279899 -47.78626652 260.44312759 C-47.78545378 241.5765935 -47.80458887 222.71013927 -47.83279102 203.84362826 C-47.86153339 184.46246385 -47.87533055 165.08133837 -47.87360346 145.7001521 C-47.87294001 134.82280586 -47.87841284 123.94554334 -47.89995956 113.06821632 C-47.9181892 103.80620709 -47.92250406 94.54431952 -47.90894072 85.28230009 C-47.90241996 80.55965238 -47.90226158 75.83723796 -47.91964722 71.11461258 C-47.93542258 66.78473626 -47.93246899 62.45527735 -47.91507895 58.12541094 C-47.91201884 56.56553487 -47.91560387 55.00562731 -47.9267991 53.44578842 C-48.029092 38.17219833 -45.00477447 24.96913766 -34.60731506 13.31410217 C-25.11910543 4.29931672 -12.8872819 0.07665438 0 0 Z " fill="#00C884" transform="translate(114.41590881347656,20.658554077148438)"/>
<path d="M0 0 C1.11719279 0.95186693 2.23357171 1.90468914 3.34960938 2.85791016 C3.97138062 3.38840973 4.59315186 3.9189093 5.23376465 4.46548462 C11.02944372 9.50080377 16.19873173 15.14852035 21.1875 20.96875 C23.2109288 23.23638572 25.33653347 25.3657695 27.5 27.5 C30.9071879 30.86114482 34.07458174 34.33701203 37.1875 37.96875 C39.2109288 40.23638572 41.33653347 42.3657695 43.5 44.5 C46.9071879 47.86114482 50.07458174 51.33701203 53.1875 54.96875 C55.2109288 57.23638572 57.33653347 59.3657695 59.5 61.5 C62.9071879 64.86114482 66.07458174 68.33701203 69.1875 71.96875 C71.2109288 74.23638572 73.33653347 76.3657695 75.5 78.5 C78.9071879 81.86114482 82.07458174 85.33701203 85.1875 88.96875 C87.2109288 91.23638572 89.33653347 93.3657695 91.5 95.5 C94.9071879 98.86114482 98.07458174 102.33701203 101.1875 105.96875 C103.2109288 108.23638572 105.33653347 110.3657695 107.5 112.5 C110.9071879 115.86114482 114.07458174 119.33701203 117.1875 122.96875 C119.92410355 126.03563329 122.87157092 128.88012098 125.796875 131.765625 C128.47004981 134.47671719 130.95322658 137.31764509 133.42578125 140.2109375 C134.86741181 141.84931665 136.36254459 143.36621919 137.9375 144.875 C140 147 140 147 140 149 C124.91790922 149.11707054 109.83585381 149.20510384 94.75340462 149.25906086 C87.74951058 149.28478585 80.74589972 149.31982594 73.7421875 149.37719727 C66.97945358 149.43256795 60.21701363 149.46144725 53.45406723 149.47438622 C50.87773899 149.48360363 48.30142629 149.5016031 45.72522354 149.52865028 C42.10829554 149.56510351 38.4925713 149.56993825 34.87548828 149.56762695 C33.28836281 149.59459152 33.28836281 149.59459152 31.66917419 149.62210083 C22.75713733 149.56073524 15.01025257 146.73957737 8.625 140.3125 C4.63561644 136.07327626 2.72755093 131.49497838 1 126 C0.67 125.01 0.34 124.02 0 123 C-0.08999029 121.32516375 -0.12196425 119.64693205 -0.12025452 117.96968079 C-0.12162918 116.93061584 -0.12300385 115.8915509 -0.12442017 114.82099915 C-0.12082489 113.68164413 -0.11722961 112.54228912 -0.11352539 111.3684082 C-0.11367142 110.16828094 -0.11381744 108.96815369 -0.1139679 107.73165894 C-0.1133902 104.44059468 -0.10837154 101.149593 -0.10139394 97.85853982 C-0.0951468 94.41921946 -0.09455552 90.97989828 -0.09336853 87.54057312 C-0.09025924 81.02766859 -0.08205125 74.51478083 -0.07201904 68.00188369 C-0.06084545 60.5872054 -0.05534431 53.17252632 -0.05032361 45.75784171 C-0.03986831 30.50521809 -0.02227662 15.25261121 0 0 Z " fill="#81FECB" transform="translate(304,21)"/>
<path d="M0 0 C7.26 0 14.52 0 22 0 C28.7373174 10.1059761 28.7373174 10.1059761 30.75390625 13.91796875 C31.20983154 14.76963623 31.66575684 15.62130371 32.13549805 16.4987793 C32.60640869 17.38605713 33.07731934 18.27333496 33.5625 19.1875 C38.44408034 28.27849681 43.57695514 37.18984358 48.89868164 46.0300293 C49.42067139 46.90054932 49.94266113 47.77106934 50.48046875 48.66796875 C50.94348389 49.43391357 51.40649902 50.1998584 51.88354492 50.98901367 C53 53 53 53 54 56 C54.33 37.52 54.66 19.04 55 0 C62.26 0 69.52 0 77 0 C77 30.36 77 60.72 77 92 C69.41 92 61.82 92 54 92 C53.1028125 90.37578125 52.205625 88.7515625 51.28125 87.078125 C41.9965806 70.30140198 32.54072194 53.63294002 23 37 C22.67 55.15 22.34 73.3 22 92 C14.74 92 7.48 92 0 92 C0 61.64 0 31.28 0 0 Z " fill="#FCFEFD" transform="translate(215,282)"/>
<path d="M0 0 C53.86788155 0 53.86788155 0 63.75 9.25 C70.65705824 16.56706627 72.41885594 24.49785018 72.34765625 34.34375 C71.71308158 41.01747909 68.876734 45.71748567 64.6875 50.8125 C54.75075933 58.90054473 46.68901277 60.31018995 34.0625 60.125 C30.081875 60.08375 26.10125 60.0425 22 60 C22 70.56 22 81.12 22 92 C14.74 92 7.48 92 0 92 C0 61.64 0 31.28 0 0 Z " fill="#FCFEFD" transform="translate(131,282)"/>
<path d="M0 0 C5.00705209 4.095946 8.21487932 8.19290357 10.48828125 14.234375 C10.90078125 15.28625 11.31328125 16.338125 11.73828125 17.421875 C12.48828125 20.234375 12.48828125 20.234375 12.48828125 25.234375 C5.22828125 25.234375 -2.03171875 25.234375 -9.51171875 25.234375 C-10.50171875 22.264375 -11.49171875 19.294375 -12.51171875 16.234375 C-16.38843487 12.35765888 -18.96390507 12.01873776 -24.26171875 11.796875 C-28.45038007 11.84752387 -31.2235587 12.07457535 -34.57421875 14.671875 C-41.34529991 22.1279987 -41.00502599 31.60854333 -40.94921875 41.171875 C-40.96919922 42.38294922 -40.98917969 43.59402344 -41.00976562 44.84179688 C-41.00576185 52.23677356 -40.40651186 58.78898851 -36.51171875 65.234375 C-32.43670798 69.25428798 -28.64585476 70.53092371 -22.94921875 70.734375 C-18.16826082 70.5212961 -14.71441777 69.47581447 -10.51171875 67.234375 C-10.18171875 62.614375 -9.85171875 57.994375 -9.51171875 53.234375 C-14.46171875 53.234375 -19.41171875 53.234375 -24.51171875 53.234375 C-24.51171875 48.284375 -24.51171875 43.334375 -24.51171875 38.234375 C-12.30171875 38.234375 -0.09171875 38.234375 12.48828125 38.234375 C12.67246164 43.53979352 12.83145285 48.83406163 12.92773438 54.14013672 C12.9678683 55.9426029 13.02239215 57.74481017 13.09179688 59.54638672 C13.65012194 74.41589688 13.65012194 74.41589688 10.92236328 78.68530273 C8.82606964 80.32935029 6.97515361 81.29699006 4.48828125 82.234375 C3.28945313 82.77707031 2.090625 83.31976563 0.85546875 83.87890625 C-0.29695313 84.26433594 -1.449375 84.64976562 -2.63671875 85.046875 C-3.79429687 85.44519531 -4.951875 85.84351563 -6.14453125 86.25390625 C-18.59001799 89.87782408 -33.61443492 89.8325511 -45.30078125 83.79296875 C-55.80583544 76.95357546 -61.4871745 67.78204196 -64.125 55.65332031 C-66.70856338 39.49300087 -65.32642945 22.22846116 -56.51171875 8.234375 C-43.78832754 -7.94442141 -17.02730273 -11.96942587 0 0 Z " fill="#FBFEFD" transform="translate(368.51171875,286.765625)"/>
<path d="M0 0 C2.84625 -0.061875 5.6925 -0.12375 8.625 -0.1875 C9.51010254 -0.21481201 10.39520508 -0.24212402 11.30712891 -0.27026367 C16.26683622 -0.32217148 19.79093543 0.08651837 24 3 C27.59522107 7.50926033 27.55316392 11.59876304 27.4296875 17.17578125 C27 20 27 20 24.625 23.1875 C21.17405196 25.57029745 19.55924385 26.12379268 15.4296875 26.09765625 C14.62257324 26.09515869 13.81545898 26.09266113 12.98388672 26.09008789 C11.9579541 26.08098389 10.93202148 26.07187988 9.875 26.0625 C4.986875 26.0315625 4.986875 26.0315625 0 26 C0 17.42 0 8.84 0 0 Z " fill="#01C884" transform="translate(153,299)"/>
</svg>
