<?xml version="1.0" encoding="UTF-8"?>
<svg version="1.1" xmlns="http://www.w3.org/2000/svg" width="512" height="512">
<path d="M0 0 C1.81173291 -0.01199636 3.62345568 -0.0256133 5.43516541 -0.04071045 C10.31287294 -0.07575539 15.19029918 -0.0854086 20.06812048 -0.08797359 C23.1206496 -0.09083041 26.17310866 -0.09939481 29.22562027 -0.10996246 C39.8879267 -0.14685184 50.5500342 -0.16331524 61.21240234 -0.16015625 C71.13423524 -0.15774725 81.05520243 -0.20009935 90.97681606 -0.2631309 C99.51817074 -0.31545122 108.05924214 -0.33689154 116.60075581 -0.33433461 C121.69281618 -0.33331638 126.78410338 -0.34462793 131.87600327 -0.38704681 C136.65853977 -0.42581255 141.43956436 -0.42606441 146.22215462 -0.39698029 C147.97329103 -0.39280363 149.72452229 -0.40220999 151.47549629 -0.42642212 C164.66251367 -0.59692841 164.66251367 -0.59692841 169.29867935 2.28859711 C171.32924981 4.28241795 172.93084233 6.25152174 174.55517578 8.58105469 C175.68937962 9.90361732 176.83380437 11.21755226 177.99267578 12.51855469 C178.84539062 13.50855469 178.84539062 13.50855469 179.71533203 14.51855469 C183.15534728 18.37487751 186.87165278 21.95933576 190.55517578 25.58105469 C199.1225716 34.00470225 199.1225716 34.00470225 202.89892578 38.42480469 C207.63992704 43.94140753 212.88096948 48.97621214 218.05517578 54.08105469 C223.78424502 59.73332185 229.45026906 65.36162605 234.68212891 71.48535156 C238.91680289 76.22341745 243.53277365 80.61927844 248.05517578 85.08105469 C253.78424502 90.73332185 259.45026906 96.36162605 264.68212891 102.48535156 C268.91680289 107.22341745 273.53277365 111.61927844 278.05517578 116.08105469 C290.26857298 128.13072297 290.26857298 128.13072297 294.37913704 133.2785244 C296.19753714 135.20262677 297.78474352 136.50728164 299.91662407 138.01818275 C306.29999611 142.86501948 310.62824915 147.54426483 311.84369278 155.68317795 C312.43179543 162.70177728 312.36849185 169.72149203 312.23873067 176.7570405 C312.18603925 180.45729153 312.21514166 184.15707354 312.2336731 187.85752869 C312.25728884 195.09030226 312.20701412 202.32072941 312.13164593 209.55307434 C312.04679558 217.99132051 312.03850506 226.42913887 312.03360723 234.86774714 C312.02249808 249.93512422 311.94611636 265.00144688 311.83105469 280.06835938 C311.71973639 294.65663855 311.64885251 309.24431525 311.62597656 323.83300781 C311.62385179 325.18047142 311.62385179 325.18047142 311.62168409 326.55515651 C311.6188654 328.36509189 311.6160566 330.17502728 311.61325776 331.98496268 C311.61187637 332.87800031 311.61049498 333.77103794 311.60907173 334.69113731 C311.60703644 336.02751901 311.60703644 336.02751901 311.60496003 337.39089831 C311.58243113 351.33667522 311.52846947 365.28235467 311.46901504 379.22801697 C311.45120726 383.42914703 311.43483377 387.63027263 311.42179346 391.83142042 C311.39420665 400.66113822 311.35577016 409.49053323 311.28236605 418.32000373 C311.25219491 421.96760195 311.22773205 425.61495987 311.22041321 429.26268196 C311.16403393 453.4295053 309.32832245 475.03620509 292.04736328 493.42773438 C279.06786843 506.3453379 262.44354767 512.89767585 244.29870605 512.85520935 C242.62704652 512.86306437 242.62704652 512.86306437 240.92161608 512.87107807 C237.19721918 512.88604768 233.47296004 512.88678258 229.74853516 512.88745117 C227.07383657 512.89507484 224.39914941 512.90345444 221.72445679 512.91267395 C214.46375773 512.93547034 207.20308801 512.94343911 199.94235802 512.94850039 C195.40200239 512.95176434 190.86165518 512.95829111 186.32130432 512.96550179 C173.73141504 512.98506248 161.14153356 513.00146921 148.55162811 513.00437832 C147.34439883 513.00465967 147.34439883 513.00465967 146.11278108 513.00494671 C144.48145517 513.00531295 142.85012926 513.00567664 141.21880335 513.00603782 C140.40909336 513.00622063 139.59938337 513.00640345 138.76513672 513.0065918 C137.95442925 513.00677235 137.14372178 513.0069529 136.30844742 513.00713892 C123.18617601 513.01067694 110.06406908 513.03767843 96.94185466 513.07508969 C83.44464725 513.11325956 69.94752126 513.13253644 56.45025873 513.13283783 C48.882096 513.13342053 41.3141294 513.14179058 33.74601746 513.17083549 C27.2987904 513.19546614 20.85183095 513.20255436 14.40456945 513.18758797 C11.12137616 513.18046566 7.83881447 513.18384599 4.55566025 513.20399857 C-19.1918922 513.34080248 -38.17326519 509.67233156 -55.74560547 492.48339844 C-59.71334657 488.2170719 -62.65445096 483.67446842 -65.44482422 478.58105469 C-65.83025391 477.95199219 -66.21568359 477.32292969 -66.61279297 476.67480469 C-73.34915936 464.90552088 -74.03528017 450.92625845 -73.95275879 437.73095703 C-73.95738026 436.09512467 -73.96374146 434.45929648 -73.97166777 432.82347679 C-73.9882133 428.37537734 -73.98018285 423.92762552 -73.96772289 419.47952557 C-73.95861354 414.66416372 -73.97267111 409.8488586 -73.98364258 405.0335083 C-74.00136997 395.61880156 -73.99761367 386.20422283 -73.98599201 376.7895112 C-73.97693513 369.13365032 -73.97574342 361.47782516 -73.98008728 353.82196045 C-73.98070021 352.7297048 -73.98131314 351.63744916 -73.98194465 350.51209486 C-73.98322363 348.29275909 -73.98452049 346.07342334 -73.98583502 343.85408759 C-73.99722388 323.07432267 -73.98415372 302.29462849 -73.96263355 281.51487517 C-73.94476413 263.70942565 -73.94786871 245.90408046 -73.96630859 228.09863281 C-73.98774526 207.39000292 -73.9961254 186.68143493 -73.98385954 165.97279549 C-73.98258543 163.76191331 -73.98132794 161.55103112 -73.98008728 159.34014893 C-73.97947018 158.25253246 -73.97885308 157.16491599 -73.97821727 156.04434144 C-73.97477276 148.40330472 -73.98057329 140.76230747 -73.99000549 133.12127686 C-74.00125796 123.801344 -73.99811736 114.4815458 -73.97688252 105.16162825 C-73.9664157 100.41223464 -73.9621752 95.66306503 -73.97547913 90.9136734 C-73.98750007 86.55618957 -73.98068276 82.19913489 -73.95956892 77.84168935 C-73.95514356 76.27527575 -73.95727611 74.70882501 -73.96707207 73.14243579 C-74.08897576 52.00939728 -68.2557729 34.01148831 -53.42529297 18.46386719 C-38.10188402 3.8511915 -20.43846303 -0.02731236 0 0 Z " fill="#0505DD" transform="translate(137.44482421875,-0.5810546875)"/>
<path d="M0 0 C3.48625821 1.74312911 4.87018803 2.6579149 7.36328125 5.38671875 C7.99564697 6.07064697 8.6280127 6.7545752 9.27954102 7.45922852 C9.95041748 8.19455811 10.62129395 8.9298877 11.3125 9.6875 C17.35431782 16.21895058 23.50498818 22.60018103 29.86254883 28.82495117 C32.77451918 31.69512879 35.55780603 34.60608576 38.21484375 37.71484375 C43.00844246 43.26740109 48.28189757 48.35184979 53.5 53.5 C59.22906924 59.15226717 64.89509328 64.78057137 70.12695312 70.90429688 C74.36162711 75.64236276 78.97759787 80.03822375 83.5 84.5 C89.22906924 90.15226717 94.89509328 95.78057137 100.12695312 101.90429688 C104.36162711 106.64236276 108.97759787 111.03822375 113.5 115.5 C119.31134999 121.23344488 125.07090537 126.94174913 130.37744141 133.15478516 C133.2371322 136.40689816 136.34418073 139.4096478 139.4375 142.4375 C140.68843431 143.6630861 141.93726253 144.89082695 143.18359375 146.12109375 C143.72556396 146.6514624 144.26753418 147.18183105 144.82592773 147.72827148 C146 149 146 149 146 150 C97.82 150 49.64 150 0 150 C0 100.5 0 51 0 0 Z " fill="#5151E7" transform="translate(302,0)"/>
<path d="M0 0 C0.66533249 -0.00191345 1.33066498 -0.0038269 2.01615906 -0.00579834 C3.39106638 -0.00713252 4.76598756 -0.00363546 6.14086914 0.00488281 C8.21594822 0.01571231 10.29017932 0.0048477 12.36523438 -0.0078125 C26.17803623 -0.02351668 40.26313378 1.58390324 50.82421875 11.390625 C59.1836425 20.69238379 60.84463691 29.56110473 60.29296875 41.73046875 C59.47707282 52.73373186 54.97651834 59.87114703 46.88671875 67.265625 C34.4336186 77.00848196 20.30115881 77.265625 4.88671875 77.265625 C4.88671875 90.135625 4.88671875 103.005625 4.88671875 116.265625 C-4.35328125 116.265625 -13.59328125 116.265625 -23.11328125 116.265625 C-23.11328125 78.645625 -23.11328125 41.025625 -23.11328125 2.265625 C-6.20874664 0.01168705 -6.20874664 0.01168705 0 0 Z " fill="#FDFDFE" transform="translate(203.11328125,263.734375)"/>
<path d="M0 0 C-1.09890483 6.91663627 -2.56569185 13.42736799 -5 20 C-7.58364081 19.55709015 -9.80759173 19.09070675 -12.1875 17.96875 C-15.76204235 16.73751874 -19.08492216 16.78225644 -22.8125 16.875 C-23.50537109 16.88402344 -24.19824219 16.89304687 -24.91210938 16.90234375 C-26.60822395 16.92573843 -28.30415871 16.96160359 -30 17 C-30.33 18.65 -30.66 20.3 -31 22 C-27.08265451 25.02195223 -23.29019663 26.70073083 -18.625 28.375 C-9.56354028 31.74982612 -2.11072195 36.7785561 2.3125 45.625 C4.32019132 55.48093922 3.3221445 63.64170242 -1.9375 72.125 C-7.92118762 78.76145354 -18.35467043 82.36301841 -27.11401367 83.20263672 C-29.30978104 83.30297757 -31.4895458 83.32852949 -33.6875 83.3125 C-34.46697998 83.30903564 -35.24645996 83.30557129 -36.04956055 83.30200195 C-44.96362372 83.1365034 -53.41931104 81.92951905 -61 77 C-60.58223867 70.22938527 -59.93405034 63.20664494 -57 57 C-53.3986159 55.79953863 -52.85032966 56.26712377 -49.5625 57.875 C-44.51622404 60.31702187 -40.6339304 61.15228793 -35 61.1875 C-33.453125 61.20876953 -33.453125 61.20876953 -31.875 61.23046875 C-29.03454797 61.00276947 -27.40892052 60.46504061 -25 59 C-24.87184635 56.6147267 -24.87184635 56.6147267 -26 54 C-29.53715135 51.86436145 -32.97552307 50.37521995 -36.84765625 48.95703125 C-45.84965139 45.55369631 -52.72235349 40.91646976 -58.125 32.8125 C-59.95876427 24.82252711 -60.58596624 16.85919261 -56.5 9.5 C-53.31289107 4.95762513 -49.7899372 1.77175389 -45 -1 C-44.31808594 -1.4125 -43.63617188 -1.825 -42.93359375 -2.25 C-30.19047923 -8.63263823 -12.44497918 -5.8253094 0 0 Z " fill="#FBFBFE" transform="translate(329,299)"/>
<path d="M0 0 C17.29467085 0 17.29467085 0 23 4 C26.56909158 7.56909158 27.29414315 10.53998747 27.5625 15.4375 C27.37880472 20.09322525 26.50604582 23.06861996 23.49609375 26.6328125 C16.64757536 32.89124967 8.95097173 32 0 32 C0 21.44 0 10.88 0 0 Z " fill="#0909DD" transform="translate(208,286)"/>
</svg>
