<svg width="200" height="56" viewBox="0 0 200 56" fill="none" xmlns="http://www.w3.org/2000/svg">
<path d="M93.33 33.7686C93.33 30.2357 94.2633 27.3189 96.1298 25.0187C98.0116 22.7034 100.759 21.5457 104.371 21.5457C107.984 21.5457 110.724 22.7034 112.59 25.0187C114.472 27.3189 115.413 30.2357 115.413 33.7686C115.413 37.3018 114.472 40.2259 112.59 42.5412C110.724 44.8416 107.984 45.9916 104.371 45.9916C100.759 45.9916 98.0116 44.8416 96.1298 42.5412C94.2633 40.2259 93.33 37.3018 93.33 33.7686ZM97.5298 33.7686C97.5298 36.9259 98.1546 39.2638 99.404 40.7821C100.653 42.3008 102.309 43.06 104.371 43.06C106.434 43.06 108.09 42.3008 109.339 40.7821C110.588 39.2638 111.213 36.9259 111.213 33.7686C111.213 30.6115 110.588 28.2736 109.339 26.7552C108.09 25.2367 106.434 24.4775 104.371 24.4775C102.309 24.4775 100.653 25.2367 99.404 26.7552C98.1546 28.2736 97.5298 30.6115 97.5298 33.7686ZM121.554 45.6082C120.877 45.6082 120.538 45.2699 120.538 44.5933V22.944C120.538 22.2674 120.877 21.9291 121.554 21.9291H123.451C124.128 21.9291 124.467 22.2674 124.467 22.944V24.7481H124.558C125.536 23.6656 126.59 22.8613 127.718 22.3351C128.847 21.8089 130.255 21.5457 131.941 21.5457C134.681 21.5457 136.645 22.32 137.834 23.8686C139.038 25.4021 139.64 27.5069 139.64 30.1828V44.5933C139.64 45.2699 139.302 45.6082 138.625 45.6082H136.683C136.005 45.6082 135.666 45.2699 135.666 44.5933V31.2653C135.666 28.3187 135.177 26.4545 134.199 25.6727C133.221 24.8759 131.979 24.4775 130.473 24.4775C128.516 24.4775 127.034 25.0638 126.025 26.2365C125.016 27.3941 124.512 29.3861 124.512 32.2127V44.5933C124.512 45.2699 124.174 45.6082 123.496 45.6082H121.554ZM144.834 24.9059C144.156 24.9059 143.818 24.6428 143.818 24.1166V22.7184C143.818 22.1922 144.156 21.9291 144.834 21.9291H147.25V19.2455C147.25 16.3889 148.176 14.457 150.027 13.4498C151.894 12.4425 154.054 11.9388 156.508 11.9388C158.088 11.9388 159.39 12.1042 160.414 12.4349C161.452 12.7657 162.355 13.1941 163.123 13.7203C163.424 13.9308 163.454 14.194 163.214 14.5097L162.039 16.1108C161.874 16.3364 161.61 16.3288 161.249 16.0883C160.782 15.7876 160.18 15.5095 159.443 15.2539C158.705 14.9983 157.802 14.8705 156.733 14.8705C155.273 14.8705 153.986 15.1261 152.872 15.6373C151.773 16.1334 151.224 17.5541 151.224 19.8995V21.9291H163.688C164.365 21.9291 164.704 22.2674 164.704 22.944V44.5933C164.704 45.2699 164.365 45.6082 163.688 45.6082H161.746C161.068 45.6082 160.73 45.2699 160.73 44.5933V24.9059H151.224V44.5933C151.224 45.2699 150.885 45.6082 150.208 45.6082H148.266C147.588 45.6082 147.25 45.2699 147.25 44.5933V24.9059H144.834ZM170.19 43.3983C169.724 42.9621 169.626 42.5562 169.897 42.1804L170.913 40.7596C171.244 40.3087 171.734 40.3313 172.381 40.8275C173.269 41.5038 174.255 42.045 175.339 42.4509C176.438 42.857 177.687 43.06 179.087 43.06C179.915 43.06 180.652 42.9621 181.3 42.7667C181.947 42.5562 182.512 42.1729 182.993 41.6167C183.49 41.0604 183.738 40.3162 183.738 39.3842C183.738 38.8426 183.618 38.3317 183.377 37.8505C183.151 37.3693 182.79 36.986 182.293 36.7005C181.812 36.3997 181.337 36.1668 180.871 36.0014C180.103 35.7156 179.335 35.4826 178.568 35.3022C177.815 35.1068 176.821 34.8135 175.587 34.4227C174.759 34.1672 173.976 33.8064 173.239 33.3402C172.501 32.859 171.854 32.2127 171.297 31.4007C170.755 30.589 170.484 29.469 170.484 28.0406C170.484 26.5822 170.928 25.3269 171.816 24.2745C172.704 23.2221 173.818 22.508 175.158 22.1321C176.498 21.7412 177.8 21.5457 179.064 21.5457C180.931 21.5457 182.429 21.7637 183.558 22.1997C184.702 22.6207 185.688 23.1244 186.516 23.7107C186.997 24.0565 187.065 24.4549 186.719 24.9059L185.703 26.259C185.387 26.695 184.897 26.68 184.235 26.2139C183.678 25.823 182.888 25.4547 181.864 25.1089C180.84 24.7631 179.945 24.5902 179.177 24.5902C178.229 24.5902 177.416 24.6955 176.739 24.9059C176.061 25.1164 175.512 25.4772 175.09 25.9884C174.669 26.4996 174.458 27.1009 174.458 27.7925C174.458 28.3187 174.541 28.7923 174.706 29.2132C174.872 29.6191 175.181 29.9949 175.632 30.3407C176.084 30.6866 176.716 30.9648 177.529 31.1753C178.793 31.5061 179.945 31.8068 180.984 32.0773C182.037 32.3478 182.986 32.6786 183.829 33.0694C184.927 33.5807 185.771 34.1444 186.358 34.761C186.96 35.3773 187.373 36.0464 187.599 36.768C187.825 37.4747 187.938 38.2639 187.938 39.1359C187.938 40.7446 187.456 42.1054 186.493 43.2179C185.545 44.3303 184.483 45.0745 183.309 45.4504C182.135 45.8112 180.72 45.9916 179.064 45.9916C176.821 45.9916 174.895 45.6758 173.284 45.0445C171.688 44.3979 170.657 43.8492 170.19 43.3983Z" fill="#0044A6"/>
<path d="M32.2539 1.44336C39.2217 1.44336 45.2659 5.04026 48.4932 10.3594L49.2607 11.624L50.5078 10.8281C52.1945 9.75142 54.2439 9.11328 56.4453 9.11328C62.392 9.1134 67.0957 13.6867 67.0957 19.1758C67.0956 20.4462 66.8435 21.6658 66.3936 22.7832L65.7383 24.4082L67.4609 24.7393C74.1997 26.0344 79.1904 31.6846 79.1904 38.3506C79.1904 45.961 72.6856 52.247 64.5088 52.2471H59.8037V36.6924L59.2969 36.124L50.627 26.3809L47.1328 22.4551V52.2471H43.3291V14.6162L40.0049 17.5527L29.3115 27L28.6357 27.5967V29.4199L19.2607 34.6221L18.2314 35.1934V52.2471H18.1436C8.85792 52.2471 1.44531 45.0976 1.44531 36.4326C1.4455 29.5828 6.05881 23.6968 12.5801 21.5146L13.6064 21.1709L13.5645 20.0898C13.5517 19.7619 13.5401 19.4664 13.54 19.1758C13.54 9.4443 21.8471 1.44364 32.2539 1.44336ZM28.6357 52.2471H22.2314V37.5488L28.6357 33.9951V52.2471ZM39.3291 52.2471H32.6357V29.4004L39.3291 23.4873V52.2471ZM55.8037 38.2148V52.2471H51.1328V32.9668L55.8037 38.2148Z" fill="#0044A6"/>
</svg>
