<svg width="168" height="110" viewBox="0 0 168 110" fill="none" xmlns="http://www.w3.org/2000/svg">
<path d="M66.5479 0C81.5984 0 94.6543 7.77226 101.625 19.2656L103.282 21.998L105.976 20.2773C109.619 17.9509 114.046 16.5732 118.801 16.5732C131.646 16.5735 141.805 26.4541 141.805 38.3145C141.805 41.0598 141.261 43.6957 140.289 46.1104L138.875 49.6211L142.595 50.3369C157.15 53.1354 167.931 65.3429 167.931 79.7461C167.931 96.1902 153.88 109.773 136.218 109.773H123.734V77.0469L123.229 76.4785L104.5 55.4287L101.006 51.501V109.773H88.1514V33.6104L84.8262 36.5479L61.7285 56.9609L61.0527 57.5576V61.8164L39.6074 73.7207L38.5781 74.292V109.773H36.0684C16.0114 109.773 0 94.3251 0 75.6025C0.000297719 60.802 9.96477 48.0832 24.0508 43.3682L26.2695 42.626L26.1787 40.291C26.1511 39.5818 26.126 38.9428 26.126 38.3145C26.126 17.2873 44.0689 0.000339898 66.5479 0ZM61.0518 109.773H42.5781V76.6455L61.0518 66.3926V109.773ZM84.1514 109.773H65.0527V59.3604L84.1514 42.4834V109.773ZM119.734 78.5684V109.773H105.006V62.0137L119.734 78.5684Z" fill="white"/>
</svg>
