<svg width="54" height="34" viewBox="0 0 54 34" fill="none" xmlns="http://www.w3.org/2000/svg">
<path d="M18.7744 33.6162H14.5479V24.0146L18.7744 21.7803V33.6162ZM26.2031 33.6162H21.7754V18.5996L26.2031 14.873V33.6162ZM21.3994 0C26.239 7.58964e-05 30.4372 2.37985 32.6787 5.89941L33.2109 6.73633L34.0771 6.20996C35.2486 5.49758 36.6722 5.07526 38.2012 5.0752C42.3317 5.0752 45.5986 8.1013 45.5986 11.7334C45.5986 12.574 45.4238 13.3808 45.1113 14.1201L44.6562 15.1953L45.8525 15.415C50.5331 16.272 54 20.0101 54 24.4209C54 29.4565 49.482 33.616 43.8027 33.6162H40.6455V23.2354L40.2412 22.8027L34.2188 16.3564L31.623 13.5781V33.6162H29.2031V8.42871L26.7373 10.5039L19.3096 16.7549L18.7754 17.2041V18.3857L12.3467 21.7852L11.5479 22.207V33.6143C5.12179 33.5899 0.000155603 28.8709 0 23.1523C3.81415e-05 18.6199 3.20381 14.7242 7.7334 13.2803L8.44727 13.0537L8.41797 12.3379C8.40911 12.121 8.4004 11.9256 8.40039 11.7334C8.40039 5.29412 14.1709 3.82004e-05 21.3994 0ZM37.6455 24.4189V33.6162H34.623V21.1836L37.6455 24.4189Z" fill="#0014A8"/>
</svg>
